<?xml version="1.0" encoding="utf-8"?>
<!-- Generator: Adobe Illustrator 16.0.0, SVG Export Plug-In . SVG Version: 6.00 Build 0)  -->
<!DOCTYPE svg PUBLIC "-//W3C//DTD SVG 1.1//EN" "http://www.w3.org/Graphics/SVG/1.1/DTD/svg11.dtd">
<svg version="1.1" id="Layer_1" xmlns="http://www.w3.org/2000/svg" xmlns:xlink="http://www.w3.org/1999/xlink" x="0px" y="0px"
	 width="100px" height="100px" viewBox="0 0 100 100" enable-background="new 0 0 100 100" xml:space="preserve">
<path opacity="0.5" enable-background="new    " d="M50.003,86.406c-19.039,0-34.471-15.432-34.471-34.469
	s15.432-34.469,34.471-34.469c2.169,0,4.282,0.224,6.339,0.608c-0.377,1.655-0.598,3.368-0.598,5.137
	c0,12.693,10.291,22.979,22.982,22.979c1.766,0,3.482-0.219,5.138-0.599c0.382,2.062,0.606,4.172,0.606,6.343
	C84.471,70.975,69.038,86.406,50.003,86.406z M44.867,29.554c-10.216,2.334-17.843,11.458-17.843,22.383
	c0,12.688,10.287,22.979,22.979,22.979c10.923,0,20.048-7.627,22.382-17.843C58.441,54.479,47.46,43.498,44.867,29.554z"/>
<path fill="#FFFFFF" d="M50.003,83.533c-19.039,0-34.471-15.432-34.471-34.468c0-19.037,15.432-34.47,34.471-34.47
	c2.169,0,4.282,0.225,6.339,0.608c-0.377,1.656-0.598,3.369-0.598,5.138c0,12.691,10.291,22.978,22.982,22.978
	c1.766,0,3.482-0.218,5.138-0.598c0.382,2.061,0.606,4.173,0.606,6.344C84.471,68.102,69.038,83.533,50.003,83.533z M44.867,26.682
	c-10.216,2.334-17.843,11.457-17.843,22.384c0,12.688,10.287,22.979,22.979,22.979c10.923,0,20.048-7.627,22.382-17.843
	C58.441,51.605,47.46,40.625,44.867,26.682z"/>
</svg>
