<?xml version="1.0" encoding="utf-8"?>
<!-- Generator: Adobe Illustrator 16.0.0, SVG Export Plug-In . SVG Version: 6.00 Build 0)  -->
<!DOCTYPE svg PUBLIC "-//W3C//DTD SVG 1.1//EN" "http://www.w3.org/Graphics/SVG/1.1/DTD/svg11.dtd">
<svg version="1.1" id="Layer_1" xmlns="http://www.w3.org/2000/svg" xmlns:xlink="http://www.w3.org/1999/xlink" x="0px" y="0px"
	 width="100px" height="100px" viewBox="0 0 100 100" enable-background="new 0 0 100 100" xml:space="preserve">
<path opacity="0.5" enable-background="new    " d="M93.994,55.498h-7.996c-2.209,0-4-1.791-4-3.998c0-2.208,1.791-4,4-4h7.996
	c2.209,0,4,1.792,4,4C97.994,53.707,96.207,55.498,93.994,55.498z M78.285,28.876c-1.562,1.562-4.1,1.562-5.656,0
	c-1.561-1.562-1.561-4.094,0-5.656l5.656-5.655c1.557-1.562,4.094-1.562,5.656,0c1.557,1.562,1.557,4.094,0,5.655L78.285,28.876z
	 M50.002,75.496c-13.254,0-24-10.744-24-23.996c0-13.254,10.744-23.998,24-23.998c13.254,0,23.996,10.744,23.996,23.998
	C73.998,64.752,63.256,75.496,50.002,75.496z M50.002,35.502c-8.836,0-16,7.162-16,15.998c0,8.834,7.166,15.998,16,15.998
	S65.998,60.334,65.998,51.5C65.998,42.664,58.838,35.502,50.002,35.502z M50.002,19.504c-2.21,0-4-1.792-4-4V7.506
	c0-2.208,1.79-4,4-4c2.209,0,4,1.792,4,4v7.998C54.002,17.712,52.207,19.504,50.002,19.504z M21.72,28.876l-5.655-5.656
	c-1.562-1.562-1.562-4.094,0-5.655c1.562-1.562,4.094-1.562,5.655,0l5.656,5.655c1.562,1.562,1.562,4.095,0,5.656
	S23.282,30.438,21.72,28.876z M18.004,51.5c0,2.207-1.792,3.998-4,3.998h-8c-2.208,0-3.998-1.791-3.998-3.998
	c0-2.208,1.792-4,3.998-4h8C16.214,47.5,18.004,49.292,18.004,51.5z M21.72,74.125c1.562-1.561,4.095-1.561,5.656,0
	c1.562,1.559,1.562,4.094,0,5.656l-5.656,5.652c-1.562,1.562-4.094,1.562-5.655,0c-1.562-1.559-1.562-4.094,0-5.652L21.72,74.125z
	 M50.002,83.496c2.209,0,4,1.789,4,3.998v8c0,2.209-1.791,4-4,4c-2.21,0-4-1.791-4-4v-8C46.002,85.285,47.792,83.496,50.002,83.496z
	 M78.285,74.125l5.656,5.656c1.557,1.559,1.557,4.094,0,5.652c-1.562,1.562-4.1,1.562-5.656,0l-5.656-5.652
	c-1.561-1.562-1.561-4.098,0-5.656C74.186,72.562,76.719,72.562,78.285,74.125z"/>
<path fill="#FFFFFF" d="M93.994,53.498h-7.996c-2.209,0-4-1.791-4-3.998c0-2.208,1.791-4,4-4h7.996c2.209,0,4,1.792,4,4
	C97.994,51.707,96.207,53.498,93.994,53.498z M78.285,26.876c-1.562,1.562-4.1,1.562-5.656,0c-1.561-1.562-1.561-4.094,0-5.656
	l5.656-5.655c1.557-1.562,4.094-1.562,5.656,0c1.557,1.562,1.557,4.094,0,5.655L78.285,26.876z M50.002,73.496
	c-13.254,0-24-10.744-24-23.996c0-13.254,10.744-23.998,24-23.998c13.254,0,23.996,10.744,23.996,23.998
	C73.998,62.752,63.256,73.496,50.002,73.496z M50.002,33.502c-8.836,0-16,7.162-16,15.998c0,8.834,7.166,15.998,16,15.998
	S65.998,58.334,65.998,49.5C65.998,40.664,58.838,33.502,50.002,33.502z M50.002,17.504c-2.21,0-4-1.792-4-4V5.506
	c0-2.208,1.79-4,4-4c2.209,0,4,1.792,4,4v7.998C54.002,15.712,52.207,17.504,50.002,17.504z M21.72,26.876l-5.655-5.656
	c-1.562-1.562-1.562-4.094,0-5.655c1.562-1.562,4.094-1.562,5.655,0l5.656,5.655c1.562,1.562,1.562,4.095,0,5.656
	S23.282,28.438,21.72,26.876z M18.004,49.5c0,2.207-1.792,3.998-4,3.998h-8c-2.208,0-3.998-1.791-3.998-3.998
	c0-2.208,1.792-4,3.998-4h8C16.214,45.5,18.004,47.292,18.004,49.5z M21.72,72.125c1.562-1.561,4.095-1.561,5.656,0
	c1.562,1.559,1.562,4.094,0,5.656l-5.656,5.652c-1.562,1.562-4.094,1.562-5.655,0c-1.562-1.559-1.562-4.094,0-5.652L21.72,72.125z
	 M50.002,81.496c2.209,0,4,1.789,4,3.998v8c0,2.209-1.791,4-4,4c-2.21,0-4-1.791-4-4v-8C46.002,83.285,47.792,81.496,50.002,81.496z
	 M78.285,72.125l5.656,5.656c1.557,1.559,1.557,4.094,0,5.652c-1.562,1.562-4.1,1.562-5.656,0l-5.656-5.652
	c-1.561-1.562-1.561-4.098,0-5.656C74.186,70.562,76.719,70.562,78.285,72.125z"/>
</svg>
