<?xml version="1.0" encoding="utf-8"?>
<!-- Generator: Adobe Illustrator 16.0.0, SVG Export Plug-In . SVG Version: 6.00 Build 0)  -->
<!DOCTYPE svg PUBLIC "-//W3C//DTD SVG 1.1//EN" "http://www.w3.org/Graphics/SVG/1.1/DTD/svg11.dtd">
<svg version="1.1" id="Layer_1" xmlns="http://www.w3.org/2000/svg" xmlns:xlink="http://www.w3.org/1999/xlink" x="0px" y="0px"
	 width="100px" height="100px" viewBox="0 0 100 100" enable-background="new 0 0 100 100" xml:space="preserve">
<path opacity="0.5" enable-background="new    " d="M37.945,83.137c-17.67,0-31.996-14.324-31.996-31.996
	c0-17.669,14.326-31.995,31.996-31.995c12.009,0,22.458,6.624,27.931,16.406c1.328-0.227,2.676-0.41,4.066-0.41
	c13.254,0,23.996,10.746,23.996,23.999c0,13.25-10.742,23.996-23.996,23.996C64.392,83.137,44.342,83.137,37.945,83.137z
	 M69.942,75.137c8.836,0,16-7.164,16-15.996c0-8.833-7.164-15.999-16-15.999c-3.203,0-6.164,0.962-8.668,2.582
	c-2.461-10.632-11.946-18.58-23.331-18.58c-13.252,0-23.996,10.744-23.996,23.997c0,13.254,10.744,23.996,23.996,23.996
	C45.18,75.137,63.903,75.137,69.942,75.137z"/>
<path fill="#FFFFFF" d="M37.945,81.137c-17.67,0-31.996-14.324-31.996-31.995c0-17.672,14.326-31.996,31.996-31.996
	c12.009,0,22.458,6.624,27.931,16.406c1.328-0.227,2.676-0.41,4.066-0.41c13.254,0,23.996,10.746,23.996,23.999
	c0,13.25-10.742,23.996-23.996,23.996C64.392,81.137,44.342,81.137,37.945,81.137z M69.942,73.137c8.836,0,16-7.164,16-15.996
	c0-8.833-7.164-15.999-16-15.999c-3.203,0-6.164,0.962-8.668,2.582c-2.461-10.632-11.946-18.58-23.331-18.58
	c-13.252,0-23.996,10.744-23.996,23.998c0,13.253,10.744,23.995,23.996,23.995C45.18,73.137,63.903,73.137,69.942,73.137z"/>
</svg>
