<?xml version="1.0" encoding="utf-8"?>
<!-- Generator: Adobe Illustrator 16.0.0, SVG Export Plug-In . SVG Version: 6.00 Build 0)  -->
<!DOCTYPE svg PUBLIC "-//W3C//DTD SVG 1.1//EN" "http://www.w3.org/Graphics/SVG/1.1/DTD/svg11.dtd">
<svg version="1.1" id="Layer_1" xmlns="http://www.w3.org/2000/svg" xmlns:xlink="http://www.w3.org/1999/xlink" x="0px" y="0px"
	 width="100px" height="100px" viewBox="0 0 100 100" enable-background="new 0 0 100 100" xml:space="preserve">
<path opacity="0.5" enable-background="new    " d="M8.353,64.139c-0.523-1.291-0.945-2.627-1.296-4h86.94
	c0,1.371-0.139,2.699-0.361,4H8.353z M22.525,24.144c4.588-2.542,9.859-3.998,15.476-3.998c5.612,0,10.872,1.46,15.455,3.998H22.525
	z M6.283,48.142c0.17-1.364,0.436-2.694,0.773-3.998h80.792c1.104,1.226,2.078,2.562,2.91,3.998H6.283z M8.353,40.144
	c0.562-1.386,1.227-2.718,1.969-4h55.363c0.08,0.136,0.168,0.27,0.246,0.41c1.328-0.229,2.678-0.41,4.066-0.41
	c4.902,0,9.459,1.476,13.254,4H8.353z M13.047,32.144c1.16-1.446,2.45-2.776,3.84-4h42.245c1.379,1.22,2.652,2.56,3.805,4H13.047z
	 M93.632,56.139H6.283c-0.164-1.312-0.278-2.641-0.278-3.996h86.596C93.054,53.428,93.403,54.764,93.632,56.139z M92.601,68.139
	c-0.492,1.398-1.109,2.734-1.842,4H13.047c-1.01-1.258-1.914-2.598-2.726-4H92.601z M16.887,76.139h70.96
	c-1.359,1.516-2.895,2.871-4.598,4H22.525C20.493,79.014,18.617,77.658,16.887,76.139z"/>
<path fill="#FFFFFF" d="M8.353,62.139c-0.523-1.291-0.945-2.627-1.296-4h86.94c0,1.371-0.139,2.699-0.361,4H8.353z M22.525,22.144
	c4.588-2.542,9.859-3.998,15.476-3.998c5.612,0,10.872,1.46,15.455,3.998H22.525z M6.283,46.142c0.17-1.364,0.436-2.694,0.773-3.998
	h80.792c1.104,1.226,2.078,2.562,2.91,3.998H6.283z M8.353,38.144c0.562-1.386,1.227-2.718,1.969-4h55.363
	c0.08,0.136,0.168,0.27,0.246,0.41c1.328-0.229,2.678-0.41,4.066-0.41c4.902,0,9.459,1.476,13.254,4H8.353z M13.047,30.144
	c1.16-1.446,2.45-2.776,3.84-4h42.245c1.379,1.22,2.652,2.56,3.805,4H13.047z M93.632,54.139H6.283
	c-0.164-1.312-0.278-2.64-0.278-3.997h86.596C93.054,51.428,93.403,52.764,93.632,54.139z M92.601,66.139
	c-0.492,1.398-1.109,2.734-1.842,4H13.047c-1.01-1.258-1.914-2.598-2.726-4H92.601z M16.887,74.139h70.96
	c-1.359,1.516-2.895,2.871-4.598,4H22.525C20.493,77.014,18.617,75.658,16.887,74.139z"/>
</svg>
