<?xml version="1.0" encoding="utf-8"?>
<!-- Generator: Adobe Illustrator 16.0.0, SVG Export Plug-In . SVG Version: 6.00 Build 0)  -->
<!DOCTYPE svg PUBLIC "-//W3C//DTD SVG 1.1//EN" "http://www.w3.org/Graphics/SVG/1.1/DTD/svg11.dtd">
<svg version="1.1" id="Layer_1" xmlns="http://www.w3.org/2000/svg" xmlns:xlink="http://www.w3.org/1999/xlink" x="0px" y="0px"
	 width="100px" height="100px" viewBox="0 0 100 100" enable-background="new 0 0 100 100" xml:space="preserve">
<path opacity="0.5" enable-background="new    " d="M89.082,48.875L89.082,48.875c2.734,3.898,4.355,8.637,4.355,13.766
	c0,13.25-10.742,23.996-23.996,23.996c-5.547,0-25.598,0-31.995,0c-17.672,0-31.995-14.324-31.995-31.996
	c0-17.669,14.323-31.995,31.995-31.995c4.005,0,7.828,0.75,11.36,2.094l0,0c3.271-9.364,12.156-16.094,22.634-16.094
	c1.512,0,2.984,0.156,4.414,0.424c-0.262,1.15-0.414,2.346-0.414,3.576c0,8.836,7.164,15.998,15.996,15.998
	c1.234,0,2.426-0.152,3.578-0.416c0.268,1.434,0.422,2.906,0.422,4.416C95.438,38.909,93.016,44.602,89.082,48.875z M13.449,54.641
	c0,13.254,10.742,23.996,23.996,23.996c7.232,0,25.958,0,31.997,0c8.836,0,15.996-7.164,15.996-15.996
	c0-8.835-7.16-15.999-15.996-15.999c-3.201,0-6.168,0.964-8.668,2.582c-2.461-10.63-11.944-18.58-23.329-18.58
	C24.191,30.644,13.449,41.388,13.449,54.641z M52.547,26.449c0.002,0,0.004,0,0.004,0S52.549,26.449,52.547,26.449z M67.863,17.06
	c-5.799,1.328-10.348,5.819-11.848,11.55l0,0c3.836,2.744,7.043,6.304,9.359,10.44c1.328-0.227,2.674-0.41,4.066-0.41
	c5.234,0,10.066,1.7,14.01,4.542l0,0c1.717-1.958,2.971-4.336,3.572-6.964C77.316,34.409,69.672,26.771,67.863,17.06z"/>
<path fill="#FFFFFF" d="M89.082,46.875L89.082,46.875c2.734,3.898,4.355,8.637,4.355,13.766c0,13.25-10.742,23.996-23.996,23.996
	c-5.547,0-25.598,0-31.995,0c-17.672,0-31.995-14.324-31.995-31.995c0-17.672,14.323-31.996,31.995-31.996
	c4.005,0,7.828,0.75,11.36,2.094l0,0c3.271-9.364,12.156-16.094,22.634-16.094c1.512,0,2.984,0.156,4.414,0.424
	c-0.262,1.15-0.414,2.346-0.414,3.576c0,8.836,7.164,15.998,15.996,15.998c1.234,0,2.426-0.152,3.578-0.416
	c0.268,1.434,0.422,2.906,0.422,4.416C95.438,36.909,93.016,42.602,89.082,46.875z M13.449,52.642
	c0,13.253,10.742,23.995,23.996,23.995c7.232,0,25.958,0,31.997,0c8.836,0,15.996-7.164,15.996-15.996
	c0-8.833-7.16-15.999-15.996-15.999c-3.201,0-6.168,0.964-8.668,2.582c-2.461-10.632-11.944-18.58-23.329-18.58
	C24.191,28.644,13.449,39.388,13.449,52.642z M52.547,24.449c0.002,0,0.004,0,0.004,0S52.549,24.449,52.547,24.449z M67.863,15.06
	c-5.799,1.328-10.348,5.819-11.848,11.55l0,0c3.836,2.744,7.043,6.304,9.359,10.44c1.328-0.227,2.674-0.41,4.066-0.41
	c5.234,0,10.066,1.7,14.01,4.542l0,0c1.717-1.958,2.971-4.336,3.572-6.964C77.316,32.409,69.672,24.771,67.863,15.06z"/>
</svg>
