<?xml version="1.0" encoding="utf-8"?>
<!-- Generator: Adobe Illustrator 16.0.0, SVG Export Plug-In . SVG Version: 6.00 Build 0)  -->
<!DOCTYPE svg PUBLIC "-//W3C//DTD SVG 1.1//EN" "http://www.w3.org/Graphics/SVG/1.1/DTD/svg11.dtd">
<svg version="1.1" id="Layer_1" xmlns="http://www.w3.org/2000/svg" xmlns:xlink="http://www.w3.org/1999/xlink" x="0px" y="0px"
	 width="100px" height="100px" viewBox="0 0 100 100" enable-background="new 0 0 100 100" xml:space="preserve">
<path opacity="0.5" enable-background="new    " d="M95.165,48.515h-7.253c-2.003,0-3.627-1.622-3.627-3.627
	c0-2.002,1.624-3.622,3.627-3.622h7.253c2.001,0,3.629,1.622,3.629,3.622C98.794,46.893,97.166,48.515,95.165,48.515z
	 M80.917,24.375c-1.417,1.417-3.712,1.417-5.129,0c-1.416-1.414-1.416-3.711,0-5.127l5.129-5.129c1.417-1.415,3.712-1.415,5.128,0
	c1.418,1.416,1.418,3.714,0,5.129L80.917,24.375z M75.573,52.678L75.573,52.678c3.173,3.783,5.089,8.65,5.089,13.971
	c0,12.016-9.743,21.76-21.761,21.76c-5.03,0-23.211,0-29.012,0c-16.021,0-29.011-12.99-29.011-29.014
	c0-16.021,12.99-29.01,29.011-29.01c2.852,0,5.604,0.421,8.202,1.186c3.98-5.126,10.188-8.438,17.183-8.438
	c12.017,0,21.761,9.744,21.761,21.757C77.031,47.636,76.5,50.258,75.573,52.678z M8.13,59.395c0,12.018,9.74,21.76,21.758,21.76
	c6.558,0,23.537,0,29.014,0c8.011,0,14.503-6.498,14.503-14.506c0-8.01-6.492-14.506-14.503-14.506
	c-2.903,0-5.593,0.873-7.861,2.342c-2.228-9.639-10.829-16.845-21.152-16.845C17.87,37.639,8.13,47.379,8.13,59.395z M55.274,30.384
	c-4.014,0-7.644,1.629-10.269,4.261c4.243,2.604,7.771,6.262,10.207,10.615c1.205-0.205,2.425-0.372,3.688-0.372
	c3.853,0,7.469,1.017,10.607,2.77l0,0c0.173-0.896,0.272-1.82,0.272-2.77C69.781,36.88,63.286,30.384,55.274,30.384z M55.274,15.877
	c-2.003,0-3.627-1.623-3.627-3.625V5c0-2.003,1.624-3.627,3.627-3.627c2.001,0,3.627,1.624,3.627,3.627v7.253
	C58.901,14.255,57.279,15.877,55.274,15.877z M29.631,24.375l-5.127-5.127c-1.416-1.415-1.416-3.713,0-5.129
	c1.415-1.415,3.712-1.415,5.127,0l5.128,5.129c1.417,1.416,1.417,3.713,0,5.127C33.345,25.792,31.048,25.792,29.631,24.375z"/>
<path fill="#FFFFFF" d="M95.165,46.703h-7.253c-2.003,0-3.627-1.624-3.627-3.627c0-2.002,1.624-3.624,3.627-3.624h7.253
	c2.001,0,3.629,1.624,3.629,3.624C98.794,45.079,97.166,46.703,95.165,46.703z M80.917,22.561c-1.417,1.416-3.712,1.416-5.129,0
	c-1.416-1.414-1.416-3.712,0-5.127l5.129-5.128c1.417-1.416,3.712-1.416,5.128,0c1.418,1.415,1.418,3.713,0,5.128L80.917,22.561z
	 M75.573,50.865L75.573,50.865c3.173,3.781,5.089,8.65,5.089,13.971c0,12.014-9.743,21.756-21.761,21.756c-5.03,0-23.211,0-29.012,0
	c-16.021,0-29.011-12.986-29.011-29.008c0-16.024,12.99-29.013,29.011-29.013c2.852,0,5.604,0.421,8.202,1.187
	c3.98-5.126,10.188-8.44,17.183-8.44c12.017,0,21.761,9.744,21.761,21.759C77.031,45.823,76.5,48.445,75.573,50.865z M8.13,57.584
	c0,12.016,9.74,21.756,21.758,21.756c6.558,0,23.537,0,29.014,0c8.011,0,14.503-6.496,14.503-14.504
	c0-8.01-6.492-14.506-14.503-14.506c-2.903,0-5.593,0.874-7.861,2.34c-2.228-9.639-10.829-16.844-21.152-16.844
	C17.87,35.826,8.13,45.565,8.13,57.584z M55.274,28.571c-4.014,0-7.644,1.63-10.269,4.261c4.243,2.604,7.771,6.261,10.207,10.616
	c1.205-0.206,2.425-0.372,3.688-0.372c3.853,0,7.469,1.014,10.607,2.769l0,0c0.173-0.896,0.272-1.819,0.272-2.769
	C69.781,35.068,63.286,28.571,55.274,28.571z M55.274,14.064c-2.003,0-3.627-1.624-3.627-3.626V3.187
	c0-2.005,1.624-3.627,3.627-3.627c2.001,0,3.627,1.622,3.627,3.627v7.251C58.901,12.442,57.279,14.064,55.274,14.064z
	 M29.631,22.561l-5.127-5.127c-1.416-1.415-1.416-3.713,0-5.128c1.415-1.416,3.712-1.416,5.127,0l5.128,5.128
	c1.417,1.415,1.417,3.713,0,5.127C33.345,23.977,31.048,23.977,29.631,22.561z"/>
</svg>
