<?xml version="1.0" encoding="utf-8"?>
<!-- Generator: Adobe Illustrator 16.0.0, SVG Export Plug-In . SVG Version: 6.00 Build 0)  -->
<!DOCTYPE svg PUBLIC "-//W3C//DTD SVG 1.1//EN" "http://www.w3.org/Graphics/SVG/1.1/DTD/svg11.dtd">
<svg version="1.1" id="Layer_1" xmlns="http://www.w3.org/2000/svg" xmlns:xlink="http://www.w3.org/1999/xlink" x="0px" y="0px"
	 width="100px" height="100px" viewBox="0 0 100 100" enable-background="new 0 0 100 100" xml:space="preserve">
<path opacity="0.5" enable-background="new    " d="M75.145,70.646V62.76c4.299-2.492,7.199-7.129,7.199-12.456
	c0-7.954-6.447-14.401-14.399-14.401c-2.883,0-5.548,0.864-7.802,2.324c-2.215-9.57-10.751-16.722-20.998-16.722
	c-11.927,0-21.596,9.67-21.596,21.599c0,6.388,2.792,12.109,7.2,16.063v8.849c-8.598-4.983-14.4-14.26-14.4-24.912
	c0-15.904,12.894-28.797,28.796-28.797c10.808,0,20.212,5.96,25.138,14.766c1.195-0.204,2.408-0.369,3.658-0.369
	c11.928,0,21.596,9.67,21.596,21.601C89.541,59.705,83.529,67.678,75.145,70.646z M35.549,50.304c1.987,0,3.598,1.614,3.598,3.6
	v28.797c0,1.989-1.611,3.6-3.598,3.6c-1.987,0-3.6-1.61-3.6-3.6V53.904C31.949,51.918,33.562,50.304,35.549,50.304z M49.947,57.504
	c1.987,0,3.601,1.613,3.601,3.6V89.9c0,1.988-1.614,3.6-3.601,3.6c-1.987,0-3.6-1.611-3.6-3.6V61.104
	C46.347,59.114,47.959,57.504,49.947,57.504z M64.344,50.304c1.986,0,3.601,1.614,3.601,3.6v28.797c0,1.989-1.614,3.6-3.601,3.6
	c-1.988,0-3.6-1.61-3.6-3.6V53.904C60.744,51.918,62.357,50.304,64.344,50.304z"/>
<path fill="#FFFFFF" d="M75.145,68.846V60.96c4.299-2.493,7.199-7.13,7.199-12.456c0-7.951-6.447-14.401-14.399-14.401
	c-2.883,0-5.548,0.864-7.802,2.324c-2.215-9.57-10.751-16.722-20.998-16.722c-11.927,0-21.596,9.669-21.596,21.596
	c0,6.387,2.792,12.111,7.2,16.062v8.85c-8.598-4.982-14.4-14.26-14.4-24.912c0-15.903,12.894-28.794,28.796-28.794
	c10.808,0,20.212,5.959,25.138,14.766c1.195-0.204,2.408-0.369,3.658-0.369c11.928,0,21.596,9.669,21.596,21.601
	C89.541,57.904,83.529,65.879,75.145,68.846z M35.549,48.504c1.987,0,3.598,1.614,3.598,3.6V80.9c0,1.99-1.611,3.6-3.598,3.6
	c-1.987,0-3.6-1.609-3.6-3.6V52.104C31.949,50.118,33.562,48.504,35.549,48.504z M49.947,55.704c1.987,0,3.601,1.614,3.601,3.601
	v28.796c0,1.987-1.614,3.601-3.601,3.601c-1.987,0-3.6-1.613-3.6-3.601V59.305C46.347,57.314,47.959,55.704,49.947,55.704z
	 M64.344,48.504c1.986,0,3.601,1.614,3.601,3.6V80.9c0,1.99-1.614,3.6-3.601,3.6c-1.988,0-3.6-1.609-3.6-3.6V52.104
	C60.744,50.118,62.357,48.504,64.344,48.504z"/>
</svg>
