<?xml version="1.0" encoding="utf-8"?>
<!-- Generator: Adobe Illustrator 16.0.0, SVG Export Plug-In . SVG Version: 6.00 Build 0)  -->
<!DOCTYPE svg PUBLIC "-//W3C//DTD SVG 1.1//EN" "http://www.w3.org/Graphics/SVG/1.1/DTD/svg11.dtd">
<svg version="1.1" id="Layer_1" xmlns="http://www.w3.org/2000/svg" xmlns:xlink="http://www.w3.org/1999/xlink" x="0px" y="0px"
	 width="100px" height="100px" viewBox="0 0 100 100" enable-background="new 0 0 100 100" xml:space="preserve">
<path opacity="0.5" enable-background="new    " d="M92.344,79.45c-2.098,0-3.798-1.7-3.798-3.8c0-2.098,1.7-3.801,3.798-3.801
	c2.1,0,3.801,1.703,3.801,3.801C96.145,77.75,94.443,79.45,92.344,79.45z M75.246,66.725v-8.322c4.539-2.632,7.6-7.526,7.6-13.148
	c0-8.393-6.804-15.201-15.197-15.201c-3.041,0-5.858,0.912-8.234,2.453c-2.34-10.102-11.35-17.651-22.163-17.651
	c-12.591,0-22.798,10.207-22.798,22.799c0,6.743,2.947,12.782,7.6,16.956v9.34c-9.076-5.26-15.198-15.051-15.198-26.295
	c0-16.787,13.608-30.397,30.396-30.397c11.408,0,21.336,6.291,26.534,15.586c1.262-0.215,2.54-0.39,3.863-0.39
	c12.589,0,22.796,10.207,22.796,22.801C90.444,55.177,84.093,63.594,75.246,66.725z M12.555,81.35c2.098,0,3.798,1.703,3.798,3.801
	s-1.701,3.8-3.798,3.8c-2.097,0-3.8-1.702-3.8-3.8C8.755,83.05,10.456,81.35,12.555,81.35z M31.552,49.054
	c0-2.097-0.198-3.8,1.9-3.8s1.9,1.703,1.9,3.8V94.65h-3.8l0,0l0,0c0-4.197-3.401-7.6-7.598-7.6V83.25
	c2.932,0,5.58,1.143,7.598,2.957V49.054z M48.65,75.65c-2.098,0-1.9-1.699-1.9-3.801V56.654c0-2.098-0.198-3.801,1.9-3.801
	c2.096,0,1.9,1.703,1.9,3.801V71.85C50.55,73.951,50.746,75.65,48.65,75.65z M48.65,83.25c2.096,0,3.799,1.703,3.799,3.801
	s-1.703,3.799-3.799,3.799c-2.098,0-3.8-1.701-3.8-3.799C44.85,84.949,46.552,83.25,48.65,83.25z M63.848,45.254
	c2.099,0,1.9,1.703,1.9,3.8v34.233c3.464-4.627,8.975-7.637,15.198-7.637v3.8c-8.395,0-15.198,6.806-15.198,15.2h-3.801
	c0-0.516,0.039-1.028,0.078-1.533c-0.102-0.635-0.078-1.414-0.078-2.268V49.054C61.947,46.957,61.75,45.254,63.848,45.254z"/>
<path fill="#FFFFFF" d="M92.344,77.551c-2.098,0-3.798-1.7-3.798-3.801c0-2.097,1.7-3.8,3.798-3.8c2.1,0,3.801,1.703,3.801,3.8
	C96.145,75.851,94.443,77.551,92.344,77.551z M75.246,64.825v-8.323c4.539-2.631,7.6-7.526,7.6-13.148
	c0-8.394-6.804-15.201-15.197-15.201c-3.041,0-5.858,0.912-8.234,2.453c-2.34-10.102-11.35-17.651-22.163-17.651
	c-12.591,0-22.798,10.207-22.798,22.796c0,6.742,2.947,12.783,7.6,16.954v9.341C12.978,56.787,6.855,46.994,6.855,35.751
	c0-16.786,13.608-30.395,30.396-30.395c11.408,0,21.336,6.291,26.534,15.586c1.262-0.215,2.54-0.39,3.863-0.39
	c12.589,0,22.796,10.207,22.796,22.801C90.444,53.277,84.093,61.693,75.246,64.825z M12.555,79.45c2.098,0,3.798,1.703,3.798,3.8
	c0,2.099-1.701,3.801-3.798,3.801c-2.097,0-3.8-1.702-3.8-3.801C8.755,81.15,10.456,79.45,12.555,79.45z M31.552,47.154
	c0-2.097-0.198-3.8,1.9-3.8s1.9,1.703,1.9,3.8V92.75h-3.8l0,0l0,0c0-4.197-3.401-7.6-7.598-7.6V81.35
	c2.932,0,5.58,1.144,7.598,2.958V47.154z M48.65,73.75c-2.098,0-1.9-1.699-1.9-3.8V54.754c0-2.097-0.198-3.801,1.9-3.801
	c2.096,0,1.9,1.704,1.9,3.801V69.95C50.55,72.051,50.746,73.75,48.65,73.75z M48.65,81.35c2.096,0,3.799,1.703,3.799,3.801
	s-1.703,3.8-3.799,3.8c-2.098,0-3.8-1.702-3.8-3.8C44.85,83.05,46.552,81.35,48.65,81.35z M63.848,43.354c2.099,0,1.9,1.703,1.9,3.8
	v34.233c3.464-4.627,8.975-7.637,15.198-7.637v3.801c-8.395,0-15.198,6.805-15.198,15.199h-3.801c0-0.516,0.039-1.027,0.078-1.533
	c-0.102-0.634-0.078-1.413-0.078-2.267V47.154C61.947,45.057,61.75,43.354,63.848,43.354z"/>
</svg>
