<?xml version="1.0" encoding="utf-8"?>
<!-- Generator: Adobe Illustrator 16.0.0, SVG Export Plug-In . SVG Version: 6.00 Build 0)  -->
<!DOCTYPE svg PUBLIC "-//W3C//DTD SVG 1.1//EN" "http://www.w3.org/Graphics/SVG/1.1/DTD/svg11.dtd">
<svg version="1.1" id="Layer_1" xmlns="http://www.w3.org/2000/svg" xmlns:xlink="http://www.w3.org/1999/xlink" x="0px" y="0px"
	 width="100px" height="100px" viewBox="0 0 100 100" enable-background="new 0 0 100 100" xml:space="preserve">
<path opacity="0.5" enable-background="new    " d="M77.998,77.746v-8.762c4.779-2.773,7.998-7.926,7.998-13.844
	c0-8.833-7.162-15.999-15.998-15.999c-3.201,0-6.166,0.96-8.666,2.582C58.871,31.09,49.383,23.142,38.001,23.142
	c-13.254,0-23.996,10.746-23.996,23.999c0,7.098,3.101,13.459,8,17.848v9.832c-9.554-5.537-16-15.844-16-27.68
	c0-17.671,14.326-31.999,31.996-31.999c12.008,0,22.459,6.624,27.93,16.408c1.328-0.227,2.674-0.41,4.066-0.41
	c13.254,0,23.998,10.746,23.998,23.997C93.996,65.586,87.309,74.445,77.998,77.746z M34.001,63.141c2.21,0,4,1.793,4,4
	c0,2.211-1.79,4-4,4c-2.208,0-3.998-1.789-3.998-4C30.003,64.934,31.793,63.141,34.001,63.141z M34.001,79.141c2.21,0,4,1.793,4,4
	c0,2.209-1.79,3.996-4,3.996c-2.208,0-3.998-1.789-3.998-3.996C30.003,80.93,31.793,79.141,34.001,79.141z M50.001,71.141
	c2.209,0,4,1.793,4,4c0,2.209-1.791,4-4,4c-2.21,0-4-1.791-4-4C46.001,72.93,47.792,71.141,50.001,71.141z M50.001,87.137
	c2.209,0,4,1.793,4,4c0,2.211-1.791,4-4,4c-2.21,0-4-1.789-4-4C46.001,88.93,47.792,87.137,50.001,87.137z M65.998,63.141
	c2.209,0,4,1.793,4,4c0,2.211-1.791,4-4,4S62,69.352,62,67.141C62,64.934,63.793,63.141,65.998,63.141z M65.998,79.141
	c2.209,0,4,1.793,4,4c0,2.209-1.791,3.996-4,3.996S62,85.348,62,83.141C62,80.93,63.793,79.141,65.998,79.141z"/>
<path fill="#FFFFFF" d="M77.998,75.746v-8.762c4.779-2.773,7.998-7.926,7.998-13.844c0-8.835-7.162-15.999-15.998-15.999
	c-3.201,0-6.166,0.96-8.666,2.582C58.871,29.09,49.383,21.142,38.001,21.142c-13.254,0-23.996,10.746-23.996,24
	c0,7.097,3.101,13.458,8,17.847v9.832c-9.554-5.537-16-15.844-16-27.679c0-17.672,14.326-31.998,31.996-31.998
	c12.008,0,22.459,6.624,27.93,16.408c1.328-0.227,2.674-0.41,4.066-0.41c13.254,0,23.998,10.746,23.998,23.999
	C93.996,63.586,87.309,72.445,77.998,75.746z M34.001,61.141c2.21,0,4,1.793,4,4c0,2.211-1.79,4-4,4c-2.208,0-3.998-1.789-3.998-4
	C30.003,62.934,31.793,61.141,34.001,61.141z M34.001,77.141c2.21,0,4,1.793,4,4c0,2.209-1.79,3.996-4,3.996
	c-2.208,0-3.998-1.789-3.998-3.996C30.003,78.93,31.793,77.141,34.001,77.141z M50.001,69.141c2.209,0,4,1.793,4,4
	c0,2.209-1.791,4-4,4c-2.21,0-4-1.791-4-4C46.001,70.93,47.792,69.141,50.001,69.141z M50.001,85.137c2.209,0,4,1.793,4,4
	c0,2.211-1.791,4-4,4c-2.21,0-4-1.789-4-4C46.001,86.93,47.792,85.137,50.001,85.137z M65.998,61.141c2.209,0,4,1.793,4,4
	c0,2.211-1.791,4-4,4S62,67.352,62,65.141C62,62.934,63.793,61.141,65.998,61.141z M65.998,77.141c2.209,0,4,1.793,4,4
	c0,2.209-1.791,3.996-4,3.996S62,83.348,62,81.141C62,78.93,63.793,77.141,65.998,77.141z"/>
</svg>
