<?xml version="1.0" encoding="utf-8"?>
<!-- Generator: Adobe Illustrator 16.0.0, SVG Export Plug-In . SVG Version: 6.00 Build 0)  -->
<!DOCTYPE svg PUBLIC "-//W3C//DTD SVG 1.1//EN" "http://www.w3.org/Graphics/SVG/1.1/DTD/svg11.dtd">
<svg version="1.1" id="Layer_1" xmlns="http://www.w3.org/2000/svg" xmlns:xlink="http://www.w3.org/1999/xlink" x="0px" y="0px"
	 width="100px" height="100px" viewBox="0 0 100 100" enable-background="new 0 0 100 100" xml:space="preserve">
<path opacity="0.5" enable-background="new    " d="M89.417,77.465v0.093h-1.358h-5.438c-2.002,0-3.624-1.621-3.624-3.625
	c0-2.001,1.622-3.623,3.624-3.623h5.438c2.003,0,3.623-1.623,3.623-3.625c0-2.001-1.62-3.624-3.623-3.624
	c-2.002,0-3.625-1.624-3.625-3.627c0-2,1.623-3.624,3.625-3.624c0.251,0,0.495,0.023,0.729,0.073
	c5.66,0.384,10.146,5.046,10.146,10.802C98.933,72.228,94.78,76.792,89.417,77.465z M69.936,55.81c-2,0-3.625-1.624-3.625-3.626
	c0-2,1.625-3.625,3.625-3.625c0.25,0,0.491,0.025,0.729,0.075c5.658,0.382,10.145,5.045,10.145,10.8
	c0,5.549-4.153,10.109-9.515,10.78v0.096h-1.358H55.462c-7.273,0-20.589,0-25.398,0c-2.002,0-3.626,1.626-3.626,3.623
	c0,2.004,1.624,3.625,3.626,3.625h39.872h1.358v0.095c5.361,0.669,9.515,5.24,9.515,10.78c0,5.756-4.486,10.418-10.145,10.801
	c-0.237,0.046-0.482,0.074-0.729,0.074c-2,0-3.625-1.622-3.625-3.625c0-2,1.625-3.625,3.625-3.625s3.625-1.623,3.625-3.625
	c0-2-1.625-3.625-3.625-3.625H30.063h-1.36v-0.094c-5.363-0.67-9.516-5.237-9.516-10.781c0-1.913,0.533-3.684,1.4-5.238
	C9.232,64.765,1.064,54.003,1.064,41.312c0-16.014,12.982-28.999,28.999-28.999c10.882,0,20.353,6.003,25.312,14.87
	c1.205-0.207,2.422-0.371,3.686-0.371c10.687,0,19.555,7.714,21.386,17.875c-2.528-1.804-5.529-2.982-8.791-3.29
	c-2.496-4.379-7.198-7.333-12.595-7.333c-2.901,0-5.589,0.87-7.855,2.338c-2.231-9.636-10.829-16.839-21.142-16.839
	c-12.013,0-21.75,9.738-21.75,21.753c0,12.008,9.737,21.747,21.75,21.747c4.709,0,14.774,0,22.111,0h17.761
	c2,0,3.625-1.626,3.625-3.626C73.561,57.432,71.939,55.81,69.936,55.81z"/>
<path fill="#FFFFFF" d="M89.417,75.652v0.092h-1.358h-5.438c-2.002,0-3.624-1.62-3.624-3.626c0-2,1.622-3.62,3.624-3.62h5.438
	c2.003,0,3.623-1.624,3.623-3.626c0-2-1.62-3.625-3.623-3.625c-2.002,0-3.625-1.623-3.625-3.625c0-2,1.623-3.625,3.625-3.625
	c0.251,0,0.495,0.024,0.729,0.074c5.66,0.382,10.146,5.045,10.146,10.801C98.933,70.415,94.78,74.979,89.417,75.652z M69.936,53.997
	c-2,0-3.625-1.623-3.625-3.625c0-2.001,1.625-3.625,3.625-3.625c0.25,0,0.491,0.024,0.729,0.074
	c5.658,0.382,10.145,5.043,10.145,10.801c0,5.547-4.153,10.109-9.515,10.78v0.096h-1.358H55.462c-7.273,0-20.589,0-25.398,0
	c-2.002,0-3.626,1.625-3.626,3.62c0,2.006,1.624,3.626,3.626,3.626h39.872h1.358v0.097c5.361,0.669,9.515,5.239,9.515,10.78
	c0,5.756-4.486,10.416-10.145,10.8c-0.237,0.047-0.482,0.075-0.729,0.075c-2,0-3.625-1.624-3.625-3.626
	c0-2.001,1.625-3.625,3.625-3.625s3.625-1.622,3.625-3.624c0-2.001-1.625-3.627-3.625-3.627H30.063h-1.36V82.9
	c-5.363-0.671-9.516-5.236-9.516-10.782c0-1.91,0.533-3.681,1.4-5.236C9.232,62.952,1.064,52.191,1.064,39.499
	c0-16.015,12.982-28.999,28.999-28.999c10.882,0,20.353,6.004,25.312,14.871C56.58,25.164,57.797,25,59.061,25
	c10.687,0,19.555,7.714,21.386,17.875c-2.528-1.804-5.529-2.983-8.791-3.289c-2.496-4.38-7.198-7.336-12.595-7.336
	c-2.901,0-5.589,0.87-7.855,2.339c-2.231-9.636-10.827-16.84-21.142-16.84c-12.013,0-21.75,9.737-21.75,21.75
	c0,12.01,9.737,21.748,21.75,21.748c4.709,0,14.774,0,22.111,0h17.761c2,0,3.625-1.623,3.625-3.625
	C73.561,55.618,71.939,53.997,69.936,53.997z"/>
</svg>
